<svg width="25" height="25" viewBox="0 0 25 25" fill="none" xmlns="http://www.w3.org/2000/svg">
<path opacity="0.35" d="M6.15743 0C10.0726 0 13.9945 0 17.9097 0C18.156 0.0399509 18.4024 0.0663768 18.6488 0.119645C21.3787 0.732225 23.1232 2.38366 23.869 5.08035C23.9689 5.43325 24.0022 5.79954 24.0688 6.1591C24.0688 10.0743 24.0688 13.9961 24.0688 17.9113C24.0555 17.9978 24.0421 18.0776 24.0222 18.1642C23.8624 18.7901 23.7824 19.456 23.5161 20.0353C22.3176 22.6321 20.2601 24.0171 17.397 24.057C13.828 24.1103 10.2524 24.0704 6.67677 24.0704C5.2918 24.0704 4.00675 23.6975 2.88146 22.8918C0.970479 21.5268 0.0116524 19.6492 0.00499386 17.2987C-0.00166462 13.7897 -0.00166462 10.2806 0.00499386 6.77163C0.00499386 6.31885 0.0316229 5.85956 0.124842 5.4201C0.724105 2.69678 2.38206 0.952202 5.07209 0.206452C5.42499 0.0999163 5.79787 0.0665849 6.15743 0ZM21.9314 12.0386C21.9314 10.3007 21.9314 8.56281 21.9314 6.82495C21.9314 6.27229 21.8781 5.73284 21.6917 5.20682C21.0125 3.29583 19.3612 2.14401 17.2838 2.13735C13.7814 2.13069 10.279 2.12387 6.78333 2.14385C6.25731 2.14385 5.71129 2.21733 5.21856 2.38379C3.29426 3.02966 2.14234 4.70068 2.14234 6.77813C2.13568 10.2805 2.14234 13.7829 2.14234 17.2786C2.14234 17.8179 2.20227 18.3573 2.3887 18.87C3.06787 20.7677 4.69924 21.9195 6.75671 21.9262C10.279 21.9328 13.808 21.9328 17.3303 21.9262C18.9084 21.9262 20.1802 21.2937 21.1124 20.0086C21.705 19.1963 21.9447 18.2708 21.9447 17.2721C21.9314 15.5342 21.9314 13.7831 21.9314 12.0386Z" fill="white"/>
<path opacity="0.35" d="M18.2359 12.0318C18.2426 15.4343 15.4327 18.2377 12.0302 18.2377C8.62108 18.231 5.81786 15.4278 5.83118 12.0253C5.8445 8.62279 8.62108 5.83935 12.0236 5.83269C15.426 5.81937 18.2293 8.62263 18.2359 12.0318ZM16.0986 12.0318C16.0919 9.78787 14.2741 7.97004 12.0302 7.97004C9.78632 7.9767 7.96853 9.79453 7.96853 12.0318C7.97518 14.2757 9.79298 16.0935 12.0302 16.0935C14.2741 16.0935 16.0986 14.269 16.0986 12.0318Z" fill="white"/>
<path opacity="0.35" d="M18.5289 4.02838C19.3879 4.05501 20.087 4.77421 20.0604 5.60652C20.0337 6.48544 19.308 7.1713 18.4357 7.14467C17.5967 7.11803 16.9042 6.39234 16.9309 5.56003C16.9508 4.69442 17.67 4.0084 18.5289 4.02838Z" fill="white"/>
</svg>
