<svg width="25" height="25" viewBox="0 0 25 25" fill="none" xmlns="http://www.w3.org/2000/svg">
<path opacity="0.35" d="M0.962891 22.2061C0.962891 15.4145 0.962891 8.62274 0.962891 1.83108C1.0095 1.81111 1.00285 1.77122 1.0095 1.73127C1.13602 1.18528 1.42232 0.745828 1.86843 0.412904C2.16141 0.193174 2.50101 0.106536 2.84059 0C9.59895 0 16.364 0 23.1224 0C23.1423 0.013317 23.1556 0.0333314 23.1756 0.0399899C24.2942 0.25972 25 1.10524 25 2.26382C25 8.77582 25 15.2812 25 21.7932C25 22.1461 24.9401 22.4922 24.7736 22.8118C24.3408 23.6574 23.6284 24.0437 22.6962 24.0437C18.7078 24.0437 14.7193 24.0437 10.7242 24.0437C8.23394 24.0437 5.75035 24.0437 3.26008 24.0437C2.48103 24.0437 1.84846 23.7641 1.36905 23.1382C1.16264 22.8586 1.0894 22.5191 0.962891 22.2061ZM14.1467 10.3073C14.1467 10.041 14.1467 9.78134 14.1467 9.515C14.14 9.06222 13.907 8.82249 13.4476 8.82249C12.6019 8.82249 11.7563 8.82249 10.9107 8.82249C10.4113 8.82249 10.1783 9.04878 10.1783 9.54816C10.1783 13.2503 10.1783 16.9523 10.1783 20.6478C10.1783 21.1539 10.4046 21.3803 10.904 21.3803C11.7363 21.3803 12.562 21.3803 13.3943 21.3803C13.9336 21.3803 14.1467 21.1607 14.1467 20.628C14.1467 18.737 14.1467 16.8391 14.1467 14.9481C14.1467 14.3022 14.2799 13.6897 14.5795 13.117C15.0123 12.298 15.7114 11.9719 16.6237 12.0584C17.416 12.1317 17.9221 12.5711 18.1951 13.3101C18.3682 13.7896 18.4214 14.2823 18.4281 14.7816C18.4347 16.7459 18.4281 18.7102 18.4281 20.6745C18.4281 21.1539 18.6478 21.3803 19.1273 21.3803C20.0128 21.3803 20.8984 21.3803 21.7773 21.3803C22.2567 21.3803 22.4765 21.1539 22.4765 20.6745C22.4765 18.6037 22.4831 16.5263 22.4698 14.4555C22.4632 13.5367 22.3899 12.6244 22.1369 11.7388C21.8706 10.8 21.4178 9.97448 20.6054 9.38853C19.9462 8.91578 19.1872 8.7093 18.3882 8.65603C17.436 8.5961 16.4971 8.66944 15.6182 9.08226C15.019 9.36858 14.5662 9.79462 14.1467 10.3073ZM8.40041 15.0947C8.40041 13.2637 8.40041 11.4326 8.40041 9.60148C8.40041 9.06215 8.16739 8.829 7.63471 8.829C6.83569 8.829 6.03665 8.829 5.24429 8.829C4.67832 8.829 4.44527 9.062 4.44527 9.62132C4.44527 13.2835 4.44527 16.9391 4.44527 20.6013C4.44527 21.154 4.67831 21.3871 5.23096 21.3871C6.01 21.3871 6.79572 21.3871 7.57476 21.3871C8.194 21.3871 8.40041 21.1807 8.40707 20.5548C8.40041 18.7371 8.40041 16.9125 8.40041 15.0947ZM6.42286 7.76357C7.84111 7.76357 8.99302 6.61192 8.98636 5.20032C8.9797 3.79538 7.8278 2.65657 6.42286 2.65657C5.01126 2.65657 3.85932 3.80872 3.86598 5.22698C3.87264 6.63192 5.01126 7.76357 6.42286 7.76357Z" fill="white"/>
</svg>
