<svg width="27" height="22" viewBox="0 0 27 22" fill="none" xmlns="http://www.w3.org/2000/svg">
<path opacity="0.35" d="M3.91035 13.3354C3.92367 13.3354 3.93695 13.3423 3.95693 13.3423C4.49626 13.4288 5.63489 13.3421 5.94118 13.1823C5.61492 13.1157 5.3086 13.0092 5.00231 12.9027H5.00898C4.93574 12.8561 4.85585 12.8229 4.77595 12.8029C4.75597 12.7896 4.73598 12.7827 4.716 12.7694C4.70269 12.7627 4.69604 12.7627 4.68272 12.7561L4.67605 12.7496H4.66939C4.64941 12.7229 4.61612 12.7097 4.58283 12.7031C4.45631 12.6298 4.32984 12.563 4.20333 12.4898L4.20995 12.4966C4.20329 12.49 4.18999 12.4831 4.18333 12.4765C4.17667 12.4698 4.16337 12.4631 4.15671 12.4631C4.13674 12.4498 4.12341 12.4433 4.10343 12.43C4.02353 12.3634 3.93696 12.3035 3.84374 12.2502C3.83043 12.2369 3.81712 12.2303 3.81046 12.217V12.2235C3.8038 12.2169 3.7905 12.2104 3.78384 12.2037C3.75721 12.1637 3.71723 12.1437 3.67728 12.1237L3.67062 12.1302L3.67728 12.1237C3.66396 12.1104 3.64398 12.097 3.63067 12.0837C3.3843 11.864 3.1446 11.6377 2.92487 11.3847C2.26568 10.599 1.85954 9.70658 1.7064 8.68783C1.6731 8.44147 1.65977 8.1952 1.64645 7.94883C1.63979 7.85561 1.6731 7.86222 1.73968 7.89551C2.15916 8.11524 2.59195 8.28186 3.05805 8.3884C3.34436 8.45498 3.63734 8.50138 3.93697 8.50804C3.96361 8.50804 3.99691 8.52134 4.0302 8.49471C4.00357 8.4481 3.95693 8.42153 3.91698 8.3949C2.83164 7.59588 2.12584 6.53717 1.83287 5.21879C1.59316 4.15343 1.67976 3.10141 2.07927 2.08267C2.15917 1.86959 2.25905 1.66322 2.37224 1.45681C2.42551 1.35693 2.43214 1.35692 2.50538 1.44348C2.99145 2.02942 3.51084 2.56889 4.07682 3.07494C5.26868 4.14695 6.60037 5.00566 8.06524 5.66485C8.89755 6.03773 9.75649 6.33091 10.6354 6.54398C11.4877 6.75039 12.3466 6.89012 13.2189 6.93673C13.2256 6.93673 13.2322 6.93673 13.2389 6.93673C13.3188 6.93673 13.4187 6.99665 13.4653 6.93673C13.5052 6.89012 13.4453 6.79019 13.4386 6.71695C13.159 5.03235 13.5518 3.52087 14.6638 2.22247C15.4761 1.27696 16.5015 0.684267 17.7267 0.464537C19.3247 0.184881 20.7763 0.54453 22.0613 1.55662C22.2411 1.69645 22.4143 1.84955 22.5741 2.01602C22.6074 2.04931 22.6406 2.06266 22.6939 2.05601C23.8392 1.8163 24.9245 1.41022 25.9366 0.817619C25.9566 0.804302 25.9765 0.790972 26.0165 0.804289C25.597 2.04277 24.8313 3.0015 23.7326 3.7073C24.2453 3.66069 24.7447 3.55436 25.2375 3.42119C25.7368 3.28802 26.2163 3.11489 26.7023 2.90847C26.6957 2.97506 26.6624 3.00833 26.6357 3.04828C25.9899 3.97381 25.2242 4.7794 24.3319 5.46523C24.2653 5.5185 24.1988 5.56492 24.1322 5.61153C24.0856 5.64483 24.0722 5.69157 24.0722 5.74483C24.0989 6.26419 24.0922 6.78345 24.0523 7.30281C24.0123 7.85547 23.9457 8.40828 23.8459 8.96093C23.7127 9.70003 23.5262 10.419 23.2932 11.1314C22.8937 12.3433 22.361 13.4955 21.6885 14.5742C20.5965 16.3253 19.2182 17.8101 17.5269 18.9887C16.3484 19.8076 15.0766 20.4336 13.7116 20.8731C12.846 21.1527 11.9604 21.3456 11.0549 21.4654C10.0628 21.5986 9.06401 21.6385 8.06524 21.5919C6.58706 21.5187 5.14214 21.2391 3.75052 20.7398C2.68516 20.3602 1.67973 19.874 0.720912 19.2748C0.700937 19.2614 0.68095 19.2484 0.667633 19.2218C3.57073 19.4948 6.18754 18.7688 8.51135 16.9843C8.41147 16.9776 8.31825 16.9643 8.21837 16.9576C6.95992 16.8511 5.86795 16.3586 4.94908 15.4929C4.34981 14.927 3.91035 14.2545 3.61738 13.4821C3.61072 13.4688 3.60404 13.4554 3.59738 13.4421C3.59738 13.4154 3.59074 13.3954 3.57076 13.3754C3.55079 13.2556 3.55076 13.2621 3.66395 13.2688C3.75717 13.3154 3.83045 13.3488 3.91035 13.3354Z" fill="white"/>
</svg>
