<svg width="150" height="41" viewBox="0 0 150 41" fill="none" xmlns="http://www.w3.org/2000/svg">
<path d="M23.32 7.78V0H15.55H7.78003V7.78H15.55H23.32Z" fill="white"/>
<path d="M23.32 15.55H15.55H7.78003V7.78003H0V15.55V23.32V31.09V38.86H7.78003V31.09V23.32H15.55H23.32V31.09V38.86H31.09V31.09V23.32V15.55V7.78003H23.32V15.55Z" fill="white"/>
<path d="M85.2 7.78003H77.43V15.55H85.2V7.78003Z" fill="white"/>
<path d="M61.89 15.55V7.78H69.66H77.43V0H69.66H61.89H54.12V7.78V15.55V23.32V31.09V38.86H61.89H69.66H77.43H85.2V31.09V23.32H77.43V31.09H69.66H61.89V23.32H69.66H77.43V15.55H69.66H61.89Z" fill="white"/>
<path d="M108.23 15.55V23.32V31.09H116V23.32V15.55V7.78003H108.23V15.55Z" fill="white"/>
<path d="M123.77 0H116V7.78H123.77H131.54V0H123.77Z" fill="white"/>
<path d="M139.31 7.78003H131.54V15.55H139.31V7.78003Z" fill="white"/>
<path d="M123.77 38.8601H131.54V31.0901H123.77H116V38.8601H123.77Z" fill="white"/>
<path d="M139.31 23.3201H131.54V31.0901H139.31V23.3201Z" fill="white"/>
<path d="M142.98 39.1099H143.43V36.0799H144.49V35.6799H141.92V36.0799H142.98V39.1099ZM144.991 39.1099H145.441V36.2299L146.646 39.1099H146.986L148.191 36.2299V39.1099H148.641V35.6799H148.036L146.816 38.5399L145.596 35.6799H144.991V39.1099Z" fill="white"/>
</svg>
