<svg width="1841" height="598" viewBox="0 0 1841 598" fill="none" xmlns="http://www.w3.org/2000/svg">
<g opacity="0.7">
<path opacity="0.3" d="M129.26 157.814C129.26 158.654 128.58 159.334 127.74 159.334C126.9 159.334 126.22 158.654 126.22 157.814C126.22 156.964 126.9 156.274 127.74 156.274C128.58 156.274 129.26 156.964 129.26 157.814Z" fill="white" stroke="#000B18" stroke-width="0.5367" stroke-miterlimit="10"/>
<path opacity="0.3" d="M20.8599 34.2644C20.8599 35.1044 20.1799 35.7844 19.3399 35.7844C18.4999 35.7844 17.8199 35.1044 17.8199 34.2644C17.8199 33.4144 18.4999 32.7244 19.3399 32.7244C20.1799 32.7244 20.8599 33.4144 20.8599 34.2644Z" fill="white" stroke="#000B18" stroke-width="0.5367" stroke-miterlimit="10"/>
<path opacity="0.3" d="M104.59 210.604C104.59 211.444 103.91 212.124 103.07 212.124C102.23 212.124 101.55 211.444 101.55 210.604C101.55 209.754 102.23 209.064 103.07 209.064C103.91 209.064 104.59 209.754 104.59 210.604Z" fill="white" stroke="#000B18" stroke-width="0.5367" stroke-miterlimit="10"/>
<path opacity="0.3" d="M241.52 202.145C241.52 202.985 240.84 203.664 240 203.664C239.16 203.664 238.48 202.985 238.48 202.145C238.48 201.295 239.16 200.604 240 200.604C240.84 200.604 241.52 201.285 241.52 202.145Z" fill="white" stroke="#000B18" stroke-width="0.5367" stroke-miterlimit="10"/>
<path opacity="0.3" d="M234.72 275.614C234.72 276.454 234.04 277.134 233.2 277.134C232.36 277.134 231.68 276.454 231.68 275.614C231.68 274.764 232.36 274.074 233.2 274.074C234.03 274.084 234.72 274.764 234.72 275.614Z" fill="white" stroke="#000B18" stroke-width="0.5367" stroke-miterlimit="10"/>
<path opacity="0.3" d="M545.54 131.834C545.54 132.674 544.86 133.354 544.02 133.354C543.18 133.354 542.5 132.674 542.5 131.834C542.5 130.984 543.18 130.294 544.02 130.294C544.86 130.294 545.54 130.984 545.54 131.834Z" fill="white" stroke="#000B18" stroke-width="0.5367" stroke-miterlimit="10"/>
<path opacity="0.3" d="M462.51 105.824C462.51 106.664 461.83 107.344 460.99 107.344C460.15 107.344 459.47 106.664 459.47 105.824C459.47 104.974 460.15 104.284 460.99 104.284C461.83 104.294 462.51 104.974 462.51 105.824Z" fill="white" stroke="#000B18" stroke-width="0.5367" stroke-miterlimit="10"/>
<path opacity="0.3" d="M378.69 131.834C378.69 132.674 378.01 133.354 377.17 133.354C376.33 133.354 375.65 132.674 375.65 131.834C375.65 130.984 376.33 130.294 377.17 130.294C378 130.294 378.69 130.984 378.69 131.834Z" fill="white" stroke="#000B18" stroke-width="0.5367" stroke-miterlimit="10"/>
<path opacity="0.3" d="M443.48 161.534C443.48 162.374 442.8 163.054 441.96 163.054C441.12 163.054 440.44 162.374 440.44 161.534C440.44 160.684 441.12 159.994 441.96 159.994C442.8 159.994 443.48 160.684 443.48 161.534Z" fill="white" stroke="#000B18" stroke-width="0.5367" stroke-miterlimit="10"/>
<path opacity="0.3" d="M366.4 207.544C366.4 208.384 365.72 209.064 364.88 209.064C364.04 209.064 363.36 208.384 363.36 207.544C363.36 206.694 364.04 206.004 364.88 206.004C365.72 206.004 366.4 206.694 366.4 207.544Z" fill="white" stroke="#000B18" stroke-width="0.5367" stroke-miterlimit="10"/>
<path opacity="0.3" d="M320.42 103.925C320.42 104.765 319.74 105.445 318.9 105.445C318.06 105.445 317.38 104.765 317.38 103.925C317.38 103.075 318.06 102.385 318.9 102.385C319.73 102.395 320.42 103.075 320.42 103.925Z" fill="white" stroke="#000B18" stroke-width="0.5367" stroke-miterlimit="10"/>
<path opacity="0.3" d="M75.1799 2.06442C75.1799 2.90442 74.4999 3.58443 73.6599 3.58443C72.8199 3.58443 72.1399 2.90442 72.1399 2.06442C72.1399 1.21442 72.8199 0.524414 73.6599 0.524414C74.4999 0.524414 75.1799 1.21442 75.1799 2.06442Z" fill="white" stroke="#000B18" stroke-width="0.5367" stroke-miterlimit="10"/>
<path opacity="0.3" d="M332.53 44.4543C332.53 45.2943 331.85 45.9743 331.01 45.9743C330.17 45.9743 329.49 45.2943 329.49 44.4543C329.49 43.6043 330.17 42.9143 331.01 42.9143C331.85 42.9143 332.53 43.5943 332.53 44.4543Z" fill="white" stroke="#000B18" stroke-width="0.5367" stroke-miterlimit="10"/>
<path opacity="0.3" d="M103.67 168.834C103.67 169.674 102.99 170.354 102.15 170.354C101.31 170.354 100.63 169.674 100.63 168.834C100.63 167.984 101.31 167.294 102.15 167.294C102.99 167.304 103.67 167.984 103.67 168.834Z" fill="white" stroke="#000B18" stroke-width="0.5367" stroke-miterlimit="10"/>
<path opacity="0.3" d="M459.46 184.905C459.46 185.745 458.78 186.424 457.94 186.424C457.1 186.424 456.42 185.745 456.42 184.905C456.42 184.055 457.1 183.365 457.94 183.365C458.78 183.365 459.46 184.055 459.46 184.905Z" fill="white" stroke="#000B18" stroke-width="0.5367" stroke-miterlimit="10"/>
<path opacity="0.3" d="M530 307.624C530 308.464 529.32 309.144 528.48 309.144C527.64 309.144 526.96 308.464 526.96 307.624C526.96 306.774 527.64 306.084 528.48 306.084C529.31 306.084 530 306.774 530 307.624Z" fill="white" stroke="#000B18" stroke-width="0.5367" stroke-miterlimit="10"/>
<path opacity="0.3" d="M113.43 317.634C113.43 318.474 112.75 319.154 111.91 319.154C111.07 319.154 110.39 318.474 110.39 317.634C110.39 316.784 111.07 316.094 111.91 316.094C112.74 316.094 113.43 316.784 113.43 317.634Z" fill="white" stroke="#000B18" stroke-width="0.5367" stroke-miterlimit="10"/>
<path opacity="0.3" d="M568.04 177.214C568.04 178.054 567.36 178.734 566.52 178.734C565.68 178.734 565 178.054 565 177.214C565 176.364 565.68 175.674 566.52 175.674C567.36 175.674 568.04 176.354 568.04 177.214Z" fill="white" stroke="#000B18" stroke-width="0.5367" stroke-miterlimit="10"/>
<path opacity="0.3" d="M158.7 73.1145C158.7 73.9545 158.02 74.6345 157.18 74.6345C156.34 74.6345 155.66 73.9545 155.66 73.1145C155.66 72.2645 156.34 71.5745 157.18 71.5745C158.01 71.5845 158.7 72.2645 158.7 73.1145Z" fill="white" stroke="#000B18" stroke-width="0.5367" stroke-miterlimit="10"/>
<path opacity="0.3" d="M228.9 103.925C228.9 104.765 228.22 105.445 227.38 105.445C226.54 105.445 225.86 104.765 225.86 103.925C225.86 103.075 226.54 102.385 227.38 102.385C228.22 102.395 228.9 103.075 228.9 103.925Z" fill="white" stroke="#000B18" stroke-width="0.5367" stroke-miterlimit="10"/>
<path opacity="0.3" d="M145.26 87.9543C145.26 88.7943 144.58 89.4743 143.74 89.4743C142.9 89.4743 142.22 88.7943 142.22 87.9543C142.22 87.1043 142.9 86.4143 143.74 86.4143C144.58 86.4243 145.26 87.1043 145.26 87.9543Z" fill="white" stroke="#000B18" stroke-width="0.5367" stroke-miterlimit="10"/>
<path opacity="0.3" d="M3.64986 159.264C3.64986 160.104 2.96986 160.784 2.12986 160.784C1.28986 160.784 0.609863 160.104 0.609863 159.264C0.609863 158.414 1.28986 157.724 2.12986 157.724C2.96986 157.724 3.64986 158.414 3.64986 159.264Z" fill="white" stroke="#000B18" stroke-width="0.5367" stroke-miterlimit="10"/>
<path opacity="0.3" d="M103.07 144.435C103.07 145.275 102.39 145.955 101.55 145.955C100.71 145.955 100.03 145.275 100.03 144.435C100.03 143.585 100.71 142.895 101.55 142.895C102.38 142.895 103.07 143.575 103.07 144.435Z" fill="white" stroke="#000B18" stroke-width="0.5367" stroke-miterlimit="10"/>
<path opacity="0.3" d="M284.68 171.114C284.68 171.954 284 172.634 283.16 172.634C282.32 172.634 281.64 171.954 281.64 171.114C281.64 170.264 282.32 169.574 283.16 169.574C283.99 169.574 284.68 170.254 284.68 171.114Z" fill="white" stroke="#000B18" stroke-width="0.5367" stroke-miterlimit="10"/>
<path opacity="0.3" d="M136.71 356.744C136.71 357.584 136.03 358.264 135.19 358.264C134.35 358.264 133.67 357.584 133.67 356.744C133.67 355.894 134.35 355.204 135.19 355.204C136.02 355.204 136.71 355.894 136.71 356.744Z" fill="white" stroke="#000B18" stroke-width="0.5367" stroke-miterlimit="10"/>
<path opacity="0.3" d="M175.24 200.064C175.24 200.904 174.56 201.584 173.72 201.584C172.88 201.584 172.2 200.904 172.2 200.064C172.2 199.214 172.88 198.524 173.72 198.524C174.56 198.524 175.24 199.214 175.24 200.064Z" fill="white" stroke="#000B18" stroke-width="0.5367" stroke-miterlimit="10"/>
<path opacity="0.3" d="M446.47 183.374C446.47 184.214 445.79 184.894 444.95 184.894C444.11 184.894 443.43 184.214 443.43 183.374C443.43 182.524 444.11 181.834 444.95 181.834C445.79 181.834 446.47 182.524 446.47 183.374Z" fill="white" stroke="#000B18" stroke-width="0.5367" stroke-miterlimit="10"/>
<path opacity="0.3" d="M566.52 85.2944C566.52 86.1344 565.84 86.8144 565 86.8144C564.16 86.8144 563.48 86.1344 563.48 85.2944C563.48 84.4444 564.16 83.7544 565 83.7544C565.83 83.7544 566.52 84.4444 566.52 85.2944Z" fill="white" stroke="#000B18" stroke-width="0.5367" stroke-miterlimit="10"/>
<path opacity="0.3" d="M253.56 153.804C253.56 154.644 252.88 155.324 252.04 155.324C251.2 155.324 250.52 154.644 250.52 153.804C250.52 152.954 251.2 152.264 252.04 152.264C252.87 152.264 253.56 152.954 253.56 153.804Z" fill="white" stroke="#000B18" stroke-width="0.5367" stroke-miterlimit="10"/>
<path opacity="0.3" d="M258.71 218.294C258.71 219.134 258.03 219.814 257.19 219.814C256.35 219.814 255.67 219.134 255.67 218.294C255.67 217.444 256.35 216.754 257.19 216.754C258.02 216.764 258.71 217.444 258.71 218.294Z" fill="white" stroke="#000B18" stroke-width="0.5367" stroke-miterlimit="10"/>
<path opacity="0.3" d="M277.43 24.0344C277.43 24.8744 276.75 25.5544 275.91 25.5544C275.07 25.5544 274.39 24.8744 274.39 24.0344C274.39 23.1844 275.07 22.4944 275.91 22.4944C276.74 22.4944 277.43 23.1844 277.43 24.0344Z" fill="white" stroke="#000B18" stroke-width="0.5367" stroke-miterlimit="10"/>
<path opacity="0.3" d="M242.34 104.294C242.34 105.134 241.66 105.814 240.82 105.814C239.98 105.814 239.3 105.134 239.3 104.294C239.3 103.444 239.98 102.754 240.82 102.754C241.66 102.764 242.34 103.444 242.34 104.294Z" fill="white" stroke="#000B18" stroke-width="0.5367" stroke-miterlimit="10"/>
<path opacity="0.3" d="M354.68 30.9643C354.68 31.8043 354 32.4843 353.16 32.4843C352.32 32.4843 351.64 31.8043 351.64 30.9643C351.64 30.1143 352.32 29.4243 353.16 29.4243C354 29.4343 354.68 30.1143 354.68 30.9643Z" fill="white" stroke="#000B18" stroke-width="0.5367" stroke-miterlimit="10"/>
<path opacity="0.3" d="M547.07 83.7644C547.07 84.6044 546.39 85.2844 545.55 85.2844C544.71 85.2844 544.03 84.6044 544.03 83.7644C544.03 82.9144 544.71 82.2244 545.55 82.2244C546.38 82.2244 547.07 82.9144 547.07 83.7644Z" fill="white" stroke="#000B18" stroke-width="0.5367" stroke-miterlimit="10"/>
<path opacity="0.3" d="M547.07 196.984C547.07 197.824 546.39 198.504 545.55 198.504C544.71 198.504 544.03 197.824 544.03 196.984C544.03 196.134 544.71 195.444 545.55 195.444C546.38 195.454 547.07 196.134 547.07 196.984Z" fill="white" stroke="#000B18" stroke-width="0.5367" stroke-miterlimit="10"/>
<path opacity="0.3" d="M366.15 42.9245C366.15 43.7645 365.47 44.4445 364.63 44.4445C363.79 44.4445 363.11 43.7645 363.11 42.9245C363.11 42.0745 363.79 41.3845 364.63 41.3845C365.47 41.3845 366.15 42.0645 366.15 42.9245Z" fill="white" stroke="#000B18" stroke-width="0.5367" stroke-miterlimit="10"/>
<path opacity="0.7" d="M46.8699 110.094C46.8699 111.204 45.9599 112.114 44.8499 112.114C43.7399 112.114 42.8299 111.204 42.8299 110.094C42.8299 108.964 43.7399 108.064 44.8499 108.064C45.9599 108.064 46.8699 108.974 46.8699 110.094Z" fill="white"/>
<path opacity="0.7" d="M115.33 432.604C115.33 433.714 114.42 434.624 113.31 434.624C112.2 434.624 111.29 433.714 111.29 432.604C111.29 431.474 112.2 430.574 113.31 430.574C114.43 430.564 115.33 431.474 115.33 432.604Z" fill="white"/>
<path opacity="0.7" d="M39.5098 285.334C39.5098 286.444 38.5998 287.354 37.4898 287.354C36.3798 287.354 35.4698 286.444 35.4698 285.334C35.4698 284.204 36.3798 283.304 37.4898 283.304C38.5998 283.294 39.5098 284.204 39.5098 285.334Z" fill="white"/>
<path opacity="0.3" d="M324.18 359.794C324.18 358.954 324.86 358.274 325.7 358.274C326.54 358.274 327.22 358.954 327.22 359.794C327.22 360.644 326.54 361.334 325.7 361.334C324.86 361.324 324.18 360.644 324.18 359.794Z" fill="white" stroke="#000B18" stroke-width="0.5367" stroke-miterlimit="10"/>
<path opacity="0.3" d="M345.94 354.444C345.94 353.604 346.62 352.924 347.46 352.924C348.3 352.924 348.98 353.604 348.98 354.444C348.98 355.294 348.3 355.984 347.46 355.984C346.62 355.984 345.94 355.294 345.94 354.444Z" fill="white" stroke="#000B18" stroke-width="0.5367" stroke-miterlimit="10"/>
<path opacity="0.3" d="M409.4 304.554C409.4 303.714 410.08 303.034 410.92 303.034C411.76 303.034 412.44 303.714 412.44 304.554C412.44 305.404 411.76 306.094 410.92 306.094C410.08 306.084 409.4 305.404 409.4 304.554Z" fill="white" stroke="#000B18" stroke-width="0.5367" stroke-miterlimit="10"/>
<path opacity="0.3" d="M324.18 336.834C324.18 335.994 324.86 335.314 325.7 335.314C326.54 335.314 327.22 335.994 327.22 336.834C327.22 337.684 326.54 338.374 325.7 338.374C324.86 338.364 324.18 337.684 324.18 336.834Z" fill="white" stroke="#000B18" stroke-width="0.5367" stroke-miterlimit="10"/>
<path opacity="0.3" d="M344.52 439.224C344.52 438.384 345.2 437.704 346.04 437.704C346.88 437.704 347.56 438.384 347.56 439.224C347.56 440.074 346.88 440.764 346.04 440.764C345.2 440.754 344.52 440.074 344.52 439.224Z" fill="white" stroke="#000B18" stroke-width="0.5367" stroke-miterlimit="10"/>
<path opacity="0.3" d="M13.9399 403.224C13.9399 402.384 14.6199 401.704 15.4599 401.704C16.2999 401.704 16.9799 402.384 16.9799 403.224C16.9799 404.074 16.2999 404.764 15.4599 404.764C14.6199 404.764 13.9399 404.074 13.9399 403.224Z" fill="white" stroke="#000B18" stroke-width="0.5367" stroke-miterlimit="10"/>
<path opacity="0.3" d="M224.87 427.504C224.87 426.664 225.55 425.984 226.39 425.984C227.23 425.984 227.91 426.664 227.91 427.504C227.91 428.354 227.23 429.044 226.39 429.044C225.55 429.034 224.87 428.354 224.87 427.504Z" fill="white" stroke="#000B18" stroke-width="0.5367" stroke-miterlimit="10"/>
<path opacity="0.3" d="M39.2599 388.384C39.2599 387.544 39.9399 386.864 40.7799 386.864C41.6199 386.864 42.2999 387.544 42.2999 388.384C42.2999 389.234 41.6199 389.924 40.7799 389.924C39.9399 389.924 39.2599 389.244 39.2599 388.384Z" fill="white" stroke="#000B18" stroke-width="0.5367" stroke-miterlimit="10"/>
<path opacity="0.3" d="M399.43 351.494C399.43 350.654 400.11 349.974 400.95 349.974C401.79 349.974 402.47 350.654 402.47 351.494C402.47 352.344 401.79 353.034 400.95 353.034C400.12 353.034 399.43 352.354 399.43 351.494Z" fill="white" stroke="#000B18" stroke-width="0.5367" stroke-miterlimit="10"/>
<path opacity="0.3" d="M374.11 418.134C374.11 417.294 374.79 416.614 375.63 416.614C376.47 416.614 377.15 417.294 377.15 418.134C377.15 418.984 376.47 419.674 375.63 419.674C374.8 419.674 374.11 418.984 374.11 418.134Z" fill="white" stroke="#000B18" stroke-width="0.5367" stroke-miterlimit="10"/>
<path opacity="0.3" d="M420.35 333.774C420.35 332.934 421.03 332.254 421.87 332.254C422.71 332.254 423.39 332.934 423.39 333.774C423.39 334.624 422.71 335.314 421.87 335.314C421.04 335.304 420.35 334.624 420.35 333.774Z" fill="white" stroke="#000B18" stroke-width="0.5367" stroke-miterlimit="10"/>
<path opacity="0.3" d="M350.2 297.044C350.2 296.204 350.88 295.524 351.72 295.524C352.56 295.524 353.24 296.204 353.24 297.044C353.24 297.894 352.56 298.584 351.72 298.584C350.88 298.574 350.2 297.894 350.2 297.044Z" fill="white" stroke="#000B18" stroke-width="0.5367" stroke-miterlimit="10"/>
<path opacity="0.3" d="M281.63 340.044C281.63 339.204 282.31 338.524 283.15 338.524C283.99 338.524 284.67 339.204 284.67 340.044C284.67 340.894 283.99 341.584 283.15 341.584C282.31 341.584 281.63 340.894 281.63 340.044Z" fill="white" stroke="#000B18" stroke-width="0.5367" stroke-miterlimit="10"/>
<path opacity="0.3" d="M289.32 303.024C289.32 302.184 290 301.504 290.84 301.504C291.68 301.504 292.36 302.184 292.36 303.024C292.36 303.874 291.68 304.564 290.84 304.564C290.01 304.554 289.32 303.874 289.32 303.024Z" fill="white" stroke="#000B18" stroke-width="0.5367" stroke-miterlimit="10"/>
<path opacity="0.3" d="M503.8 386.645C503.8 385.805 504.48 385.125 505.32 385.125C506.16 385.125 506.84 385.805 506.84 386.645C506.84 387.495 506.16 388.185 505.32 388.185C504.49 388.185 503.8 387.505 503.8 386.645Z" fill="white" stroke="#000B18" stroke-width="0.5367" stroke-miterlimit="10"/>
<path opacity="0.3" d="M10.8899 367.014C10.8899 366.174 11.5699 365.494 12.4099 365.494C13.2499 365.494 13.9299 366.174 13.9299 367.014C13.9299 367.864 13.2499 368.554 12.4099 368.554C11.5699 368.544 10.8899 367.864 10.8899 367.014Z" fill="white" stroke="#000B18" stroke-width="0.5367" stroke-miterlimit="10"/>
<path opacity="0.7" d="M389.51 411.064C389.51 409.954 390.42 409.044 391.53 409.044C392.64 409.044 393.55 409.954 393.55 411.064C393.55 412.194 392.64 413.094 391.53 413.094C390.42 413.104 389.51 412.194 389.51 411.064Z" fill="white"/>
<path opacity="0.7" d="M377.16 328.844C377.16 327.734 378.07 326.824 379.18 326.824C380.29 326.824 381.2 327.734 381.2 328.844C381.2 329.974 380.29 330.874 379.18 330.874C378.07 330.884 377.16 329.974 377.16 328.844Z" fill="white"/>
<path opacity="0.7" d="M484.41 195.504C484.41 196.494 483.6 197.304 482.61 197.304C481.62 197.304 480.81 196.494 480.81 195.504C480.81 194.494 481.62 193.694 482.61 193.694C483.6 193.694 484.41 194.504 484.41 195.504Z" fill="white"/>
<path opacity="0.7" d="M339.78 36.6744C339.78 37.4344 339.16 38.0544 338.4 38.0544C337.64 38.0544 337.02 37.4344 337.02 36.6744C337.02 35.9044 337.64 35.2844 338.4 35.2844C339.16 35.2844 339.78 35.9044 339.78 36.6744Z" fill="white"/>
<path opacity="0.7" d="M544.02 93.8443C544.02 94.8943 543.17 95.7443 542.12 95.7443C541.07 95.7443 540.22 94.8943 540.22 93.8443C540.22 92.7843 541.07 91.9343 542.12 91.9343C543.17 91.9343 544.02 92.7843 544.02 93.8443Z" fill="white"/>
<path opacity="0.7" d="M485.79 25.4144C485.79 26.1744 485.17 26.7944 484.41 26.7944C483.65 26.7944 483.03 26.1744 483.03 25.4144C483.03 24.6444 483.65 24.0244 484.41 24.0244C485.17 24.0244 485.79 24.6444 485.79 25.4144Z" fill="white"/>
</g>
<g opacity="0.6">
<path opacity="0.3" d="M751.3 157.814C751.3 158.654 750.62 159.334 749.78 159.334C748.94 159.334 748.26 158.654 748.26 157.814C748.26 156.964 748.94 156.274 749.78 156.274C750.62 156.274 751.3 156.964 751.3 157.814Z" fill="white" stroke="#000B18" stroke-width="0.5367" stroke-miterlimit="10"/>
<path opacity="0.3" d="M642.9 34.2644C642.9 35.1044 642.22 35.7844 641.38 35.7844C640.54 35.7844 639.86 35.1044 639.86 34.2644C639.86 33.4144 640.54 32.7244 641.38 32.7244C642.22 32.7244 642.9 33.4144 642.9 34.2644Z" fill="white" stroke="#000B18" stroke-width="0.5367" stroke-miterlimit="10"/>
<path opacity="0.3" d="M650.78 224.514C650.78 225.354 650.1 226.034 649.26 226.034C648.42 226.034 647.74 225.354 647.74 224.514C647.74 223.664 648.42 222.974 649.26 222.974C650.1 222.984 650.78 223.664 650.78 224.514Z" fill="white" stroke="#000B18" stroke-width="0.5367" stroke-miterlimit="10"/>
<path opacity="0.3" d="M836.46 330.884C836.46 331.724 835.78 332.404 834.94 332.404C834.1 332.404 833.42 331.724 833.42 330.884C833.42 330.034 834.1 329.344 834.94 329.344C835.77 329.354 836.46 330.034 836.46 330.884Z" fill="white" stroke="#000B18" stroke-width="0.5367" stroke-miterlimit="10"/>
<path opacity="0.3" d="M898.04 417.134C898.04 417.974 897.36 418.654 896.52 418.654C895.68 418.654 895 417.974 895 417.134C895 416.284 895.68 415.594 896.52 415.594C897.35 415.604 898.04 416.284 898.04 417.134Z" fill="white" stroke="#000B18" stroke-width="0.5367" stroke-miterlimit="10"/>
<path opacity="0.3" d="M1123.55 135.764C1123.55 136.604 1122.87 137.284 1122.03 137.284C1121.19 137.284 1120.51 136.604 1120.51 135.764C1120.51 134.914 1121.19 134.224 1122.03 134.224C1122.87 134.234 1123.55 134.914 1123.55 135.764Z" fill="white" stroke="#000B18" stroke-width="0.5367" stroke-miterlimit="10"/>
<path opacity="0.3" d="M1091.69 125.384C1091.69 126.224 1091.01 126.904 1090.17 126.904C1089.33 126.904 1088.65 126.224 1088.65 125.384C1088.65 124.534 1089.33 123.844 1090.17 123.844C1091 123.854 1091.69 124.534 1091.69 125.384Z" fill="white" stroke="#000B18" stroke-width="0.5367" stroke-miterlimit="10"/>
<path opacity="0.3" d="M1013.07 118.604C1013.07 119.444 1012.39 120.124 1011.55 120.124C1010.71 120.124 1010.03 119.444 1010.03 118.604C1010.03 117.754 1010.71 117.064 1011.55 117.064C1012.39 117.064 1013.07 117.744 1013.07 118.604Z" fill="white" stroke="#000B18" stroke-width="0.5367" stroke-miterlimit="10"/>
<path opacity="0.3" d="M1065.52 161.534C1065.52 162.374 1064.84 163.054 1064 163.054C1063.16 163.054 1062.48 162.374 1062.48 161.534C1062.48 160.684 1063.16 159.994 1064 159.994C1064.83 159.994 1065.52 160.684 1065.52 161.534Z" fill="white" stroke="#000B18" stroke-width="0.5367" stroke-miterlimit="10"/>
<path opacity="0.3" d="M988.44 207.544C988.44 208.384 987.76 209.064 986.92 209.064C986.08 209.064 985.4 208.384 985.4 207.544C985.4 206.694 986.08 206.004 986.92 206.004C987.76 206.004 988.44 206.694 988.44 207.544Z" fill="white" stroke="#000B18" stroke-width="0.5367" stroke-miterlimit="10"/>
<path opacity="0.3" d="M942.45 103.924C942.45 104.764 941.77 105.444 940.93 105.444C940.09 105.444 939.41 104.764 939.41 103.924C939.41 103.074 940.09 102.384 940.93 102.384C941.77 102.394 942.45 103.074 942.45 103.924Z" fill="white" stroke="#000B18" stroke-width="0.5367" stroke-miterlimit="10"/>
<path opacity="0.3" d="M736.13 31.4944C736.13 32.3344 735.45 33.0143 734.61 33.0143C733.77 33.0143 733.09 32.3344 733.09 31.4944C733.09 30.6444 733.77 29.9543 734.61 29.9543C735.45 29.9543 736.13 30.6444 736.13 31.4944Z" fill="white" stroke="#000B18" stroke-width="0.5367" stroke-miterlimit="10"/>
<path opacity="0.3" d="M940.77 14.4543C940.77 15.2943 940.09 15.9743 939.25 15.9743C938.41 15.9743 937.73 15.2943 937.73 14.4543C937.73 13.6043 938.41 12.9143 939.25 12.9143C940.08 12.9143 940.77 13.5943 940.77 14.4543Z" fill="white" stroke="#000B18" stroke-width="0.5367" stroke-miterlimit="10"/>
<path opacity="0.3" d="M928.18 82.2343C928.18 83.0743 927.5 83.7543 926.66 83.7543C925.82 83.7543 925.14 83.0743 925.14 82.2343C925.14 81.3843 925.82 80.6943 926.66 80.6943C927.5 80.6943 928.18 81.3843 928.18 82.2343Z" fill="white" stroke="#000B18" stroke-width="0.5367" stroke-miterlimit="10"/>
<path opacity="0.3" d="M1081.5 184.904C1081.5 185.744 1080.82 186.424 1079.98 186.424C1079.14 186.424 1078.46 185.744 1078.46 184.904C1078.46 184.054 1079.14 183.364 1079.98 183.364C1080.82 183.364 1081.5 184.054 1081.5 184.904Z" fill="white" stroke="#000B18" stroke-width="0.5367" stroke-miterlimit="10"/>
<path opacity="0.3" d="M1193.32 449.144C1193.32 449.984 1192.64 450.664 1191.8 450.664C1190.96 450.664 1190.28 449.984 1190.28 449.144C1190.28 448.294 1190.96 447.604 1191.8 447.604C1192.63 447.604 1193.32 448.284 1193.32 449.144Z" fill="white" stroke="#000B18" stroke-width="0.5367" stroke-miterlimit="10"/>
<path opacity="0.3" d="M776.75 459.144C776.75 459.984 776.07 460.664 775.23 460.664C774.39 460.664 773.71 459.984 773.71 459.144C773.71 458.294 774.39 457.604 775.23 457.604C776.06 457.614 776.75 458.294 776.75 459.144Z" fill="white" stroke="#000B18" stroke-width="0.5367" stroke-miterlimit="10"/>
<path opacity="0.3" d="M1190.08 177.214C1190.08 178.054 1189.4 178.734 1188.56 178.734C1187.72 178.734 1187.04 178.054 1187.04 177.214C1187.04 176.364 1187.72 175.674 1188.56 175.674C1189.4 175.674 1190.08 176.354 1190.08 177.214Z" fill="white" stroke="#000B18" stroke-width="0.5367" stroke-miterlimit="10"/>
<path opacity="0.3" d="M780.73 73.1142C780.73 73.9542 780.05 74.6342 779.21 74.6342C778.37 74.6342 777.69 73.9542 777.69 73.1142C777.69 72.2642 778.37 71.5742 779.21 71.5742C780.05 71.5842 780.73 72.2642 780.73 73.1142Z" fill="white" stroke="#000B18" stroke-width="0.5367" stroke-miterlimit="10"/>
<path opacity="0.3" d="M883.57 69.6042C883.57 70.4442 882.89 71.1242 882.05 71.1242C881.21 71.1242 880.53 70.4442 880.53 69.6042C880.53 68.7542 881.21 68.0642 882.05 68.0642C882.88 68.0642 883.57 68.7542 883.57 69.6042Z" fill="white" stroke="#000B18" stroke-width="0.5367" stroke-miterlimit="10"/>
<path opacity="0.3" d="M767.3 87.9543C767.3 88.7943 766.62 89.4743 765.78 89.4743C764.94 89.4743 764.26 88.7943 764.26 87.9543C764.26 87.1043 764.94 86.4143 765.78 86.4143C766.61 86.4243 767.3 87.1043 767.3 87.9543Z" fill="white" stroke="#000B18" stroke-width="0.5367" stroke-miterlimit="10"/>
<path opacity="0.3" d="M625.69 159.264C625.69 160.104 625.01 160.784 624.17 160.784C623.33 160.784 622.65 160.104 622.65 159.264C622.65 158.414 623.33 157.724 624.17 157.724C625 157.724 625.69 158.414 625.69 159.264Z" fill="white" stroke="#000B18" stroke-width="0.5367" stroke-miterlimit="10"/>
<path opacity="0.3" d="M708.12 168.834C708.12 169.674 707.44 170.354 706.6 170.354C705.76 170.354 705.08 169.674 705.08 168.834C705.08 167.984 705.76 167.294 706.6 167.294C707.44 167.304 708.12 167.984 708.12 168.834Z" fill="white" stroke="#000B18" stroke-width="0.5367" stroke-miterlimit="10"/>
<path opacity="0.3" d="M906.71 171.114C906.71 171.954 906.03 172.634 905.19 172.634C904.35 172.634 903.67 171.954 903.67 171.114C903.67 170.264 904.35 169.574 905.19 169.574C906.03 169.574 906.71 170.254 906.71 171.114Z" fill="white" stroke="#000B18" stroke-width="0.5367" stroke-miterlimit="10"/>
<path opacity="0.3" d="M800.03 498.264C800.03 499.104 799.35 499.784 798.51 499.784C797.67 499.784 796.99 499.104 796.99 498.264C796.99 497.414 797.67 496.724 798.51 496.724C799.34 496.724 800.03 497.404 800.03 498.264Z" fill="white" stroke="#000B18" stroke-width="0.5367" stroke-miterlimit="10"/>
<path opacity="0.3" d="M797.28 200.064C797.28 200.904 796.6 201.584 795.76 201.584C794.92 201.584 794.24 200.904 794.24 200.064C794.24 199.214 794.92 198.524 795.76 198.524C796.59 198.524 797.28 199.214 797.28 200.064Z" fill="white" stroke="#000B18" stroke-width="0.5367" stroke-miterlimit="10"/>
<path opacity="0.3" d="M1068.51 183.374C1068.51 184.214 1067.83 184.894 1066.99 184.894C1066.15 184.894 1065.47 184.214 1065.47 183.374C1065.47 182.524 1066.15 181.834 1066.99 181.834C1067.82 181.834 1068.51 182.524 1068.51 183.374Z" fill="white" stroke="#000B18" stroke-width="0.5367" stroke-miterlimit="10"/>
<path opacity="0.3" d="M1188.55 85.2944C1188.55 86.1344 1187.87 86.8144 1187.03 86.8144C1186.19 86.8144 1185.51 86.1344 1185.51 85.2944C1185.51 84.4444 1186.19 83.7544 1187.03 83.7544C1187.87 83.7544 1188.55 84.4444 1188.55 85.2944Z" fill="white" stroke="#000B18" stroke-width="0.5367" stroke-miterlimit="10"/>
<path opacity="0.3" d="M875.59 153.804C875.59 154.644 874.91 155.324 874.07 155.324C873.23 155.324 872.55 154.644 872.55 153.804C872.55 152.954 873.23 152.264 874.07 152.264C874.91 152.264 875.59 152.954 875.59 153.804Z" fill="white" stroke="#000B18" stroke-width="0.5367" stroke-miterlimit="10"/>
<path opacity="0.3" d="M765.77 470.164C765.77 471.004 765.09 471.684 764.25 471.684C763.41 471.684 762.73 471.004 762.73 470.164C762.73 469.314 763.41 468.624 764.25 468.624C765.09 468.624 765.77 469.314 765.77 470.164Z" fill="white" stroke="#000B18" stroke-width="0.5367" stroke-miterlimit="10"/>
<path opacity="0.3" d="M899.46 24.0344C899.46 24.8744 898.78 25.5544 897.94 25.5544C897.1 25.5544 896.42 24.8744 896.42 24.0344C896.42 23.1844 897.1 22.4944 897.94 22.4944C898.78 22.4944 899.46 23.1844 899.46 24.0344Z" fill="white" stroke="#000B18" stroke-width="0.5367" stroke-miterlimit="10"/>
<path opacity="0.3" d="M864.38 104.294C864.38 105.134 863.7 105.814 862.86 105.814C862.02 105.814 861.34 105.134 861.34 104.294C861.34 103.444 862.02 102.754 862.86 102.754C863.69 102.764 864.38 103.444 864.38 104.294Z" fill="white" stroke="#000B18" stroke-width="0.5367" stroke-miterlimit="10"/>
<path opacity="0.3" d="M976.72 30.9643C976.72 31.8043 976.04 32.4843 975.2 32.4843C974.36 32.4843 973.68 31.8043 973.68 30.9643C973.68 30.1143 974.36 29.4243 975.2 29.4243C976.03 29.4343 976.72 30.1143 976.72 30.9643Z" fill="white" stroke="#000B18" stroke-width="0.5367" stroke-miterlimit="10"/>
<path opacity="0.3" d="M1156.54 44.4543C1156.54 45.2943 1155.86 45.9743 1155.02 45.9743C1154.18 45.9743 1153.5 45.2943 1153.5 44.4543C1153.5 43.6043 1154.18 42.9143 1155.02 42.9143C1155.85 42.9143 1156.54 43.5943 1156.54 44.4543Z" fill="white" stroke="#000B18" stroke-width="0.5367" stroke-miterlimit="10"/>
<path opacity="0.3" d="M1169.1 196.984C1169.1 197.824 1168.42 198.504 1167.58 198.504C1166.74 198.504 1166.06 197.824 1166.06 196.984C1166.06 196.134 1166.74 195.444 1167.58 195.444C1168.42 195.454 1169.1 196.134 1169.1 196.984Z" fill="white" stroke="#000B18" stroke-width="0.5367" stroke-miterlimit="10"/>
<path opacity="0.3" d="M1033.7 95.7543C1033.7 96.5943 1033.02 97.2744 1032.18 97.2744C1031.34 97.2744 1030.66 96.5943 1030.66 95.7543C1030.66 94.9043 1031.34 94.2144 1032.18 94.2144C1033.02 94.2144 1033.7 94.9043 1033.7 95.7543Z" fill="white" stroke="#000B18" stroke-width="0.5367" stroke-miterlimit="10"/>
<path opacity="0.6" d="M625.96 351.514C625.96 352.624 625.05 353.534 623.94 353.534C622.83 353.534 621.92 352.624 621.92 351.514C621.92 350.384 622.83 349.484 623.94 349.484C625.05 349.474 625.96 350.384 625.96 351.514Z" fill="white"/>
<path opacity="0.3" d="M987.5 501.314C987.5 500.474 988.18 499.794 989.02 499.794C989.86 499.794 990.54 500.474 990.54 501.314C990.54 502.164 989.86 502.854 989.02 502.854C988.18 502.844 987.5 502.164 987.5 501.314Z" fill="white" stroke="#000B18" stroke-width="0.5367" stroke-miterlimit="10"/>
<path opacity="0.3" d="M1045.83 460.244C1045.83 459.404 1046.51 458.724 1047.35 458.724C1048.19 458.724 1048.87 459.404 1048.87 460.244C1048.87 461.094 1048.19 461.784 1047.35 461.784C1046.51 461.774 1045.83 461.094 1045.83 460.244Z" fill="white" stroke="#000B18" stroke-width="0.5367" stroke-miterlimit="10"/>
<path opacity="0.3" d="M1072.72 446.074C1072.72 445.234 1073.4 444.554 1074.24 444.554C1075.08 444.554 1075.76 445.234 1075.76 446.074C1075.76 446.924 1075.08 447.614 1074.24 447.614C1073.4 447.604 1072.72 446.924 1072.72 446.074Z" fill="white" stroke="#000B18" stroke-width="0.5367" stroke-miterlimit="10"/>
<path opacity="0.3" d="M987.5 478.354C987.5 477.514 988.18 476.834 989.02 476.834C989.86 476.834 990.54 477.514 990.54 478.354C990.54 479.204 989.86 479.894 989.02 479.894C988.18 479.884 987.5 479.204 987.5 478.354Z" fill="white" stroke="#000B18" stroke-width="0.5367" stroke-miterlimit="10"/>
<path opacity="0.3" d="M1043.99 595.354C1043.99 594.514 1044.67 593.834 1045.51 593.834C1046.35 593.834 1047.03 594.514 1047.03 595.354C1047.03 596.204 1046.35 596.894 1045.51 596.894C1044.67 596.894 1043.99 596.204 1043.99 595.354Z" fill="white" stroke="#000B18" stroke-width="0.5367" stroke-miterlimit="10"/>
<path opacity="0.3" d="M622.41 557.604C622.41 556.764 623.09 556.084 623.93 556.084C624.77 556.084 625.45 556.764 625.45 557.604C625.45 558.454 624.77 559.144 623.93 559.144C623.1 559.134 622.41 558.454 622.41 557.604Z" fill="white" stroke="#000B18" stroke-width="0.5367" stroke-miterlimit="10"/>
<path opacity="0.3" d="M888.19 569.014C888.19 568.174 888.87 567.494 889.71 567.494C890.55 567.494 891.23 568.174 891.23 569.014C891.23 569.864 890.55 570.554 889.71 570.554C888.87 570.554 888.19 569.874 888.19 569.014Z" fill="white" stroke="#000B18" stroke-width="0.5367" stroke-miterlimit="10"/>
<path opacity="0.3" d="M647.73 542.764C647.73 541.924 648.41 541.244 649.25 541.244C650.09 541.244 650.77 541.924 650.77 542.764C650.77 543.614 650.09 544.304 649.25 544.304C648.42 544.294 647.73 543.614 647.73 542.764Z" fill="white" stroke="#000B18" stroke-width="0.5367" stroke-miterlimit="10"/>
<path opacity="0.3" d="M1167.12 493.944C1167.12 493.104 1167.8 492.424 1168.64 492.424C1169.48 492.424 1170.16 493.104 1170.16 493.944C1170.16 494.794 1169.48 495.484 1168.64 495.484C1167.81 495.484 1167.12 494.804 1167.12 493.944Z" fill="white" stroke="#000B18" stroke-width="0.5367" stroke-miterlimit="10"/>
<path opacity="0.3" d="M1073.59 574.274C1073.59 573.434 1074.27 572.754 1075.11 572.754C1075.95 572.754 1076.63 573.434 1076.63 574.274C1076.63 575.124 1075.95 575.814 1075.11 575.814C1074.27 575.804 1073.59 575.124 1073.59 574.274Z" fill="white" stroke="#000B18" stroke-width="0.5367" stroke-miterlimit="10"/>
<path opacity="0.3" d="M1137.89 511.234C1137.89 510.394 1138.57 509.714 1139.41 509.714C1140.25 509.714 1140.93 510.394 1140.93 511.234C1140.93 512.084 1140.25 512.774 1139.41 512.774C1138.58 512.774 1137.89 512.094 1137.89 511.234Z" fill="white" stroke="#000B18" stroke-width="0.5367" stroke-miterlimit="10"/>
<path opacity="0.3" d="M1013.52 438.564C1013.52 437.724 1014.2 437.044 1015.04 437.044C1015.88 437.044 1016.56 437.724 1016.56 438.564C1016.56 439.414 1015.88 440.104 1015.04 440.104C1014.2 440.094 1013.52 439.414 1013.52 438.564Z" fill="white" stroke="#000B18" stroke-width="0.5367" stroke-miterlimit="10"/>
<path opacity="0.3" d="M944.95 481.564C944.95 480.724 945.63 480.044 946.47 480.044C947.31 480.044 947.99 480.724 947.99 481.564C947.99 482.414 947.31 483.104 946.47 483.104C945.63 483.094 944.95 482.414 944.95 481.564Z" fill="white" stroke="#000B18" stroke-width="0.5367" stroke-miterlimit="10"/>
<path opacity="0.3" d="M952.64 444.544C952.64 443.704 953.32 443.024 954.16 443.024C955 443.024 955.68 443.704 955.68 444.544C955.68 445.394 955 446.084 954.16 446.084C953.33 446.074 952.64 445.394 952.64 444.544Z" fill="white" stroke="#000B18" stroke-width="0.5367" stroke-miterlimit="10"/>
<path opacity="0.3" d="M1167.12 528.164C1167.12 527.324 1167.8 526.644 1168.64 526.644C1169.48 526.644 1170.16 527.324 1170.16 528.164C1170.16 529.014 1169.48 529.704 1168.64 529.704C1167.81 529.704 1167.12 529.014 1167.12 528.164Z" fill="white" stroke="#000B18" stroke-width="0.5367" stroke-miterlimit="10"/>
<path opacity="0.3" d="M619.36 521.384C619.36 520.544 620.04 519.864 620.88 519.864C621.72 519.864 622.4 520.544 622.4 521.384C622.4 522.234 621.72 522.924 620.88 522.924C620.05 522.924 619.36 522.234 619.36 521.384Z" fill="white" stroke="#000B18" stroke-width="0.5367" stroke-miterlimit="10"/>
<path opacity="0.6" d="M1091 566.194C1091 565.634 1091.45 565.184 1092.01 565.184C1092.57 565.184 1093.02 565.634 1093.02 566.194C1093.02 566.754 1092.57 567.214 1092.01 567.214C1091.46 567.204 1091 566.754 1091 566.194Z" fill="white"/>
<path opacity="0.6" d="M865.76 44.4442C865.76 45.2042 865.14 45.8242 864.38 45.8242C863.62 45.8242 863 45.2042 863 44.4442C863 43.6742 863.62 43.0542 864.38 43.0542C865.14 43.0542 865.76 43.6742 865.76 44.4442Z" fill="white"/>
<path opacity="0.6" d="M1167.96 135.764C1167.96 136.814 1167.11 137.664 1166.06 137.664C1165.01 137.664 1164.16 136.814 1164.16 135.764C1164.16 134.704 1165.01 133.854 1166.06 133.854C1167.1 133.854 1167.96 134.704 1167.96 135.764Z" fill="white"/>
</g>
<g opacity="0.7">
<path opacity="0.3" d="M1401.5 157.814C1401.5 158.654 1400.82 159.334 1399.98 159.334C1399.14 159.334 1398.46 158.654 1398.46 157.814C1398.46 156.964 1399.14 156.274 1399.98 156.274C1400.82 156.274 1401.5 156.964 1401.5 157.814Z" fill="white" stroke="#000B18" stroke-width="0.5367" stroke-miterlimit="10"/>
<path opacity="0.3" d="M1293.1 34.2644C1293.1 35.1044 1292.42 35.7844 1291.58 35.7844C1290.74 35.7844 1290.06 35.1044 1290.06 34.2644C1290.06 33.4144 1290.74 32.7244 1291.58 32.7244C1292.42 32.7244 1293.1 33.4144 1293.1 34.2644Z" fill="white" stroke="#000B18" stroke-width="0.5367" stroke-miterlimit="10"/>
<path opacity="0.3" d="M1376.83 210.604C1376.83 211.444 1376.15 212.124 1375.31 212.124C1374.47 212.124 1373.79 211.444 1373.79 210.604C1373.79 209.754 1374.47 209.064 1375.31 209.064C1376.15 209.064 1376.83 209.754 1376.83 210.604Z" fill="white" stroke="#000B18" stroke-width="0.5367" stroke-miterlimit="10"/>
<path opacity="0.3" d="M1513.76 178.744C1513.76 179.584 1513.08 180.264 1512.24 180.264C1511.4 180.264 1510.72 179.584 1510.72 178.744C1510.72 177.894 1511.4 177.204 1512.24 177.204C1513.08 177.204 1513.76 177.884 1513.76 178.744Z" fill="white" stroke="#000B18" stroke-width="0.5367" stroke-miterlimit="10"/>
<path opacity="0.3" d="M1498.9 256.544C1498.9 257.384 1498.22 258.064 1497.38 258.064C1496.54 258.064 1495.86 257.384 1495.86 256.544C1495.86 255.694 1496.54 255.004 1497.38 255.004C1498.22 255.004 1498.9 255.694 1498.9 256.544Z" fill="white" stroke="#000B18" stroke-width="0.5367" stroke-miterlimit="10"/>
<path opacity="0.3" d="M1663.28 118.604C1663.28 119.444 1662.6 120.124 1661.76 120.124C1660.92 120.124 1660.24 119.444 1660.24 118.604C1660.24 117.754 1660.92 117.064 1661.76 117.064C1662.59 117.064 1663.28 117.744 1663.28 118.604Z" fill="white" stroke="#000B18" stroke-width="0.5367" stroke-miterlimit="10"/>
<path opacity="0.3" d="M1697.38 76.1743C1697.38 77.0143 1696.7 77.6943 1695.86 77.6943C1695.02 77.6943 1694.34 77.0143 1694.34 76.1743C1694.34 75.3243 1695.02 74.6343 1695.86 74.6343C1696.7 74.6443 1697.38 75.3243 1697.38 76.1743Z" fill="white" stroke="#000B18" stroke-width="0.5367" stroke-miterlimit="10"/>
<path opacity="0.3" d="M1638.64 207.544C1638.64 208.384 1637.96 209.064 1637.12 209.064C1636.28 209.064 1635.6 208.384 1635.6 207.544C1635.6 206.694 1636.28 206.004 1637.12 206.004C1637.96 206.004 1638.64 206.694 1638.64 207.544Z" fill="white" stroke="#000B18" stroke-width="0.5367" stroke-miterlimit="10"/>
<path opacity="0.3" d="M1592.66 103.924C1592.66 104.764 1591.98 105.444 1591.14 105.444C1590.3 105.444 1589.62 104.764 1589.62 103.924C1589.62 103.074 1590.3 102.384 1591.14 102.384C1591.98 102.394 1592.66 103.074 1592.66 103.924Z" fill="white" stroke="#000B18" stroke-width="0.5367" stroke-miterlimit="10"/>
<path opacity="0.3" d="M1386.34 31.4944C1386.34 32.3344 1385.66 33.0143 1384.82 33.0143C1383.98 33.0143 1383.3 32.3344 1383.3 31.4944C1383.3 30.6444 1383.98 29.9543 1384.82 29.9543C1385.65 29.9543 1386.34 30.6444 1386.34 31.4944Z" fill="white" stroke="#000B18" stroke-width="0.5367" stroke-miterlimit="10"/>
<path opacity="0.3" d="M1470.52 25.2744C1470.52 26.1144 1469.84 26.7944 1469 26.7944C1468.16 26.7944 1467.48 26.1144 1467.48 25.2744C1467.48 24.4244 1468.16 23.7344 1469 23.7344C1469.83 23.7444 1470.52 24.4244 1470.52 25.2744Z" fill="white" stroke="#000B18" stroke-width="0.5367" stroke-miterlimit="10"/>
<path opacity="0.3" d="M1731.7 184.905C1731.7 185.745 1731.02 186.424 1730.18 186.424C1729.34 186.424 1728.66 185.745 1728.66 184.905C1728.66 184.055 1729.34 183.365 1730.18 183.365C1731.02 183.365 1731.7 184.055 1731.7 184.905Z" fill="white" stroke="#000B18" stroke-width="0.5367" stroke-miterlimit="10"/>
<path opacity="0.3" d="M1802.24 307.624C1802.24 308.464 1801.56 309.144 1800.72 309.144C1799.88 309.144 1799.2 308.464 1799.2 307.624C1799.2 306.774 1799.88 306.084 1800.72 306.084C1801.55 306.084 1802.24 306.774 1802.24 307.624Z" fill="white" stroke="#000B18" stroke-width="0.5367" stroke-miterlimit="10"/>
<path opacity="0.3" d="M1385.67 317.634C1385.67 318.474 1384.99 319.154 1384.15 319.154C1383.31 319.154 1382.63 318.474 1382.63 317.634C1382.63 316.784 1383.31 316.094 1384.15 316.094C1384.99 316.094 1385.67 316.784 1385.67 317.634Z" fill="white" stroke="#000B18" stroke-width="0.5367" stroke-miterlimit="10"/>
<path opacity="0.3" d="M1840.28 177.214C1840.28 178.054 1839.6 178.734 1838.76 178.734C1837.92 178.734 1837.24 178.054 1837.24 177.214C1837.24 176.364 1837.92 175.674 1838.76 175.674C1839.6 175.674 1840.28 176.354 1840.28 177.214Z" fill="white" stroke="#000B18" stroke-width="0.5367" stroke-miterlimit="10"/>
<path opacity="0.3" d="M1430.94 73.1145C1430.94 73.9545 1430.26 74.6345 1429.42 74.6345C1428.58 74.6345 1427.9 73.9545 1427.9 73.1145C1427.9 72.2645 1428.58 71.5745 1429.42 71.5745C1430.26 71.5845 1430.94 72.2645 1430.94 73.1145Z" fill="white" stroke="#000B18" stroke-width="0.5367" stroke-miterlimit="10"/>
<path opacity="0.3" d="M1417.5 87.9543C1417.5 88.7943 1416.82 89.4743 1415.98 89.4743C1415.14 89.4743 1414.46 88.7943 1414.46 87.9543C1414.46 87.1043 1415.14 86.4143 1415.98 86.4143C1416.82 86.4243 1417.5 87.1043 1417.5 87.9543Z" fill="white" stroke="#000B18" stroke-width="0.5367" stroke-miterlimit="10"/>
<path opacity="0.3" d="M1275.89 159.264C1275.89 160.104 1275.21 160.784 1274.37 160.784C1273.53 160.784 1272.85 160.104 1272.85 159.264C1272.85 158.414 1273.53 157.724 1274.37 157.724C1275.21 157.724 1275.89 158.414 1275.89 159.264Z" fill="white" stroke="#000B18" stroke-width="0.5367" stroke-miterlimit="10"/>
<path opacity="0.3" d="M1358.33 168.834C1358.33 169.674 1357.65 170.354 1356.81 170.354C1355.97 170.354 1355.29 169.674 1355.29 168.834C1355.29 167.984 1355.97 167.294 1356.81 167.294C1357.65 167.304 1358.33 167.984 1358.33 168.834Z" fill="white" stroke="#000B18" stroke-width="0.5367" stroke-miterlimit="10"/>
<path opacity="0.3" d="M1556.92 171.114C1556.92 171.954 1556.24 172.634 1555.4 172.634C1554.56 172.634 1553.88 171.954 1553.88 171.114C1553.88 170.264 1554.56 169.574 1555.4 169.574C1556.23 169.574 1556.92 170.254 1556.92 171.114Z" fill="white" stroke="#000B18" stroke-width="0.5367" stroke-miterlimit="10"/>
<path opacity="0.3" d="M1408.95 356.744C1408.95 357.584 1408.27 358.264 1407.43 358.264C1406.59 358.264 1405.91 357.584 1405.91 356.744C1405.91 355.894 1406.59 355.204 1407.43 355.204C1408.27 355.204 1408.95 355.894 1408.95 356.744Z" fill="white" stroke="#000B18" stroke-width="0.5367" stroke-miterlimit="10"/>
<path opacity="0.3" d="M1447.48 200.064C1447.48 200.904 1446.8 201.584 1445.96 201.584C1445.12 201.584 1444.44 200.904 1444.44 200.064C1444.44 199.214 1445.12 198.524 1445.96 198.524C1446.8 198.524 1447.48 199.214 1447.48 200.064Z" fill="white" stroke="#000B18" stroke-width="0.5367" stroke-miterlimit="10"/>
<path opacity="0.3" d="M1718.71 183.374C1718.71 184.214 1718.03 184.894 1717.19 184.894C1716.35 184.894 1715.67 184.214 1715.67 183.374C1715.67 182.524 1716.35 181.834 1717.19 181.834C1718.03 181.834 1718.71 182.524 1718.71 183.374Z" fill="white" stroke="#000B18" stroke-width="0.5367" stroke-miterlimit="10"/>
<path opacity="0.3" d="M1838.76 85.2944C1838.76 86.1344 1838.08 86.8144 1837.24 86.8144C1836.4 86.8144 1835.72 86.1344 1835.72 85.2944C1835.72 84.4444 1836.4 83.7544 1837.24 83.7544C1838.08 83.7544 1838.76 84.4444 1838.76 85.2944Z" fill="white" stroke="#000B18" stroke-width="0.5367" stroke-miterlimit="10"/>
<path opacity="0.3" d="M1525.8 153.804C1525.8 154.644 1525.12 155.324 1524.28 155.324C1523.44 155.324 1522.76 154.644 1522.76 153.804C1522.76 152.954 1523.44 152.264 1524.28 152.264C1525.12 152.264 1525.8 152.954 1525.8 153.804Z" fill="white" stroke="#000B18" stroke-width="0.5367" stroke-miterlimit="10"/>
<path opacity="0.3" d="M1549.67 24.0344C1549.67 24.8744 1548.99 25.5544 1548.15 25.5544C1547.31 25.5544 1546.63 24.8744 1546.63 24.0344C1546.63 23.1844 1547.31 22.4944 1548.15 22.4944C1548.98 22.4944 1549.67 23.1844 1549.67 24.0344Z" fill="white" stroke="#000B18" stroke-width="0.5367" stroke-miterlimit="10"/>
<path opacity="0.3" d="M1492.66 11.7944C1492.66 12.6344 1491.98 13.3144 1491.14 13.3144C1490.3 13.3144 1489.62 12.6344 1489.62 11.7944C1489.62 10.9444 1490.3 10.2544 1491.14 10.2544C1491.98 10.2544 1492.66 10.9444 1492.66 11.7944Z" fill="white" stroke="#000B18" stroke-width="0.5367" stroke-miterlimit="10"/>
<path opacity="0.3" d="M1819.31 83.7644C1819.31 84.6044 1818.63 85.2844 1817.79 85.2844C1816.95 85.2844 1816.27 84.6044 1816.27 83.7644C1816.27 82.9144 1816.95 82.2244 1817.79 82.2244C1818.63 82.2244 1819.31 82.9144 1819.31 83.7644Z" fill="white" stroke="#000B18" stroke-width="0.5367" stroke-miterlimit="10"/>
<path opacity="0.3" d="M1819.31 196.984C1819.31 197.824 1818.63 198.504 1817.79 198.504C1816.95 198.504 1816.27 197.824 1816.27 196.984C1816.27 196.134 1816.95 195.444 1817.79 195.444C1818.63 195.454 1819.31 196.134 1819.31 196.984Z" fill="white" stroke="#000B18" stroke-width="0.5367" stroke-miterlimit="10"/>
<path opacity="0.3" d="M1504.13 23.7444C1504.13 24.5844 1503.45 25.2643 1502.61 25.2643C1501.77 25.2643 1501.09 24.5844 1501.09 23.7444C1501.09 22.8944 1501.77 22.2043 1502.61 22.2043C1503.45 22.2143 1504.13 22.8944 1504.13 23.7444Z" fill="white" stroke="#000B18" stroke-width="0.5367" stroke-miterlimit="10"/>
<path opacity="0.7" d="M1298.29 105.454C1298.29 106.564 1297.38 107.474 1296.27 107.474C1295.16 107.474 1294.25 106.564 1294.25 105.454C1294.25 104.324 1295.16 103.424 1296.27 103.424C1297.38 103.424 1298.29 104.324 1298.29 105.454Z" fill="white"/>
<path opacity="0.7" d="M1348.01 310.004C1348.01 311.114 1347.1 312.024 1345.99 312.024C1344.88 312.024 1343.97 311.114 1343.97 310.004C1343.97 308.874 1344.88 307.974 1345.99 307.974C1347.11 307.974 1348.01 308.874 1348.01 310.004Z" fill="white"/>
<path opacity="0.3" d="M1623.56 130.314C1623.56 129.474 1624.24 128.794 1625.08 128.794C1625.92 128.794 1626.6 129.474 1626.6 130.314C1626.6 131.164 1625.92 131.854 1625.08 131.854C1624.25 131.854 1623.56 131.174 1623.56 130.314Z" fill="white" stroke="#000B18" stroke-width="0.5367" stroke-miterlimit="10"/>
<path opacity="0.3" d="M1248.69 432.114C1248.69 431.274 1249.37 430.594 1250.21 430.594C1251.05 430.594 1251.73 431.274 1251.73 432.114C1251.73 432.964 1251.05 433.654 1250.21 433.654C1249.38 433.654 1248.69 432.964 1248.69 432.114Z" fill="white" stroke="#000B18" stroke-width="0.5367" stroke-miterlimit="10"/>
<path opacity="0.3" d="M1503.14 434.614C1503.14 433.774 1503.82 433.094 1504.66 433.094C1505.5 433.094 1506.18 433.774 1506.18 434.614C1506.18 435.464 1505.5 436.154 1504.66 436.154C1503.83 436.154 1503.14 435.464 1503.14 434.614Z" fill="white" stroke="#000B18" stroke-width="0.5367" stroke-miterlimit="10"/>
<path opacity="0.3" d="M1321.84 375.304C1321.84 374.464 1322.52 373.784 1323.36 373.784C1324.2 373.784 1324.88 374.464 1324.88 375.304C1324.88 376.154 1324.2 376.844 1323.36 376.844C1322.52 376.844 1321.84 376.154 1321.84 375.304Z" fill="white" stroke="#000B18" stroke-width="0.5367" stroke-miterlimit="10"/>
<path opacity="0.3" d="M1674.02 176.634C1674.02 175.794 1674.7 175.115 1675.54 175.115C1676.38 175.115 1677.06 175.794 1677.06 176.634C1677.06 177.484 1676.38 178.174 1675.54 178.174C1674.7 178.174 1674.02 177.484 1674.02 176.634Z" fill="white" stroke="#000B18" stroke-width="0.5367" stroke-miterlimit="10"/>
<path opacity="0.3" d="M1680.56 450.134C1680.56 449.294 1681.24 448.614 1682.08 448.614C1682.92 448.614 1683.6 449.294 1683.6 450.134C1683.6 450.984 1682.92 451.674 1682.08 451.674C1681.24 451.674 1680.56 450.994 1680.56 450.134Z" fill="white" stroke="#000B18" stroke-width="0.5367" stroke-miterlimit="10"/>
<path opacity="0.3" d="M1634.52 159.534C1634.52 158.694 1635.2 158.014 1636.04 158.014C1636.88 158.014 1637.56 158.694 1637.56 159.534C1637.56 160.384 1636.88 161.074 1636.04 161.074C1635.2 161.074 1634.52 160.394 1634.52 159.534Z" fill="white" stroke="#000B18" stroke-width="0.5367" stroke-miterlimit="10"/>
<path opacity="0.3" d="M1776.04 386.645C1776.04 385.805 1776.72 385.125 1777.56 385.125C1778.4 385.125 1779.08 385.805 1779.08 386.645C1779.08 387.495 1778.4 388.185 1777.56 388.185C1776.73 388.185 1776.04 387.505 1776.04 386.645Z" fill="white" stroke="#000B18" stroke-width="0.5367" stroke-miterlimit="10"/>
<path opacity="0.3" d="M1296.92 363.464C1296.92 362.624 1297.6 361.944 1298.44 361.944C1299.28 361.944 1299.96 362.624 1299.96 363.464C1299.96 364.314 1299.28 365.004 1298.44 365.004C1297.61 364.994 1296.92 364.314 1296.92 363.464Z" fill="white" stroke="#000B18" stroke-width="0.5367" stroke-miterlimit="10"/>
<path opacity="0.7" d="M1407.88 50.7343C1407.88 49.6243 1408.79 48.7144 1409.9 48.7144C1411.01 48.7144 1411.92 49.6243 1411.92 50.7343C1411.92 51.8643 1411.01 52.7643 1409.9 52.7643C1408.79 52.7643 1407.88 51.8643 1407.88 50.7343Z" fill="white"/>
<path opacity="0.7" d="M1591.33 154.615C1591.33 153.505 1592.24 152.594 1593.35 152.594C1594.46 152.594 1595.37 153.505 1595.37 154.615C1595.37 155.745 1594.46 156.645 1593.35 156.645C1592.23 156.645 1591.33 155.745 1591.33 154.615Z" fill="white"/>
<path opacity="0.7" d="M1756.65 195.504C1756.65 196.494 1755.84 197.304 1754.85 197.304C1753.86 197.304 1753.05 196.494 1753.05 195.504C1753.05 194.494 1753.86 193.694 1754.85 193.694C1755.85 193.694 1756.65 194.504 1756.65 195.504Z" fill="white"/>
<path opacity="0.7" d="M1477.76 17.5045C1477.76 18.2645 1477.14 18.8845 1476.38 18.8845C1475.62 18.8845 1475 18.2645 1475 17.5045C1475 16.7345 1475.62 16.1145 1476.38 16.1145C1477.14 16.1145 1477.76 16.7345 1477.76 17.5045Z" fill="white"/>
<path opacity="0.7" d="M1816.26 93.8443C1816.26 94.8943 1815.41 95.7443 1814.36 95.7443C1813.31 95.7443 1812.46 94.8943 1812.46 93.8443C1812.46 92.7843 1813.31 91.9343 1814.36 91.9343C1815.41 91.9343 1816.26 92.7843 1816.26 93.8443Z" fill="white"/>
<path opacity="0.7" d="M1758.03 25.4144C1758.03 26.1744 1757.41 26.7944 1756.65 26.7944C1755.89 26.7944 1755.27 26.1744 1755.27 25.4144C1755.27 24.6444 1755.89 24.0244 1756.65 24.0244C1757.41 24.0244 1758.03 24.6444 1758.03 25.4144Z" fill="white"/>
</g>
</svg>
