<svg
  width="270"
  height="272"
  viewBox="0 0 270 272"
  fill="none"
  xmlns="http://www.w3.org/2000/svg"
>
<rect
    opacity="0.28"
    width="270"
    height="270"
    rx="24"
    fill="url(#paint0_radial_0_1)"
  />
<path
    d="M194.028 201.652C187 192.912 181.083 184.644 172.355 178.857C172.331 178.834 172.296 178.822 172.272 178.798C171.918 178.562 171.552 178.326 171.174 178.101C170.891 177.924 170.619 177.759 170.335 177.593C170.206 177.522 170.099 177.44 169.969 177.369V177.381C163.544 173.625 158.407 172.633 158.407 172.633C158.407 172.633 166.367 166.551 164.714 159.417C164.04 156.5 162.021 154.22 159.422 152.437C169.769 138.063 173.985 116.213 169.414 96.3361C169.237 95.4858 169.048 94.6592 168.836 93.8442C177.788 91.4939 184.307 86.309 187.331 80.4864C194.559 66.5852 188.205 51.1134 178.272 48.397C178.272 48.397 179.441 60.0775 156.706 51.503C137.844 44.393 128.254 54.2195 128.254 54.2195C112.085 44.5466 86.0312 57.3612 79.9251 79.3289C73.819 101.297 82.1218 111.666 82.1218 111.666C82.1218 111.654 82.4053 118.647 83.4564 121.906C85.2635 127.552 88.1926 127.918 90.4484 127.115C91.7121 138.665 95.6332 148.185 101.81 155.189C93.2829 163.68 105.259 172.515 105.259 172.515C105.259 172.515 105.164 172.562 104.999 172.645C94.5349 177.794 84.2478 185.837 77.8464 194.494C58.8549 220.194 38.4343 263.339 96.7552 259.807C96.9442 263.114 97.0032 266.563 96.8851 270.177H180.398C179.619 263.221 179.359 256.902 179.441 251.126C230.333 247.406 207.208 218.033 194.028 201.652Z"
    fill="#000B19"
    stroke="#000B19"
    stroke-width="2.15402"
    stroke-miterlimit="10"
    stroke-linecap="round"
  />
<defs>
<radialGradient
      id="paint0_radial_0_1"
      cx="0"
      cy="0"
      r="1"
      gradientUnits="userSpaceOnUse"
      gradientTransform="translate(141.493 275.208) scale(254.626)"
    >
<stop stop-color="#00F8FF" />
<stop offset="0.9505" stop-color="#193E66" />
</radialGradient>
</defs>
</svg>
